<svg width="33" height="27" viewBox="0 0 33 27" fill="none" xmlns="http://www.w3.org/2000/svg">
<path d="M0.961769 22.9245L14.5627 1.60173C15.3422 0.379693 17.1222 0.366797 17.9193 1.57741L31.9589 22.9001C32.8345 24.23 31.8807 26 30.2885 26H2.64795C1.06881 26 0.11255 24.2558 0.961769 22.9245Z" fill="#F20D8D" stroke="#F20D8D"/>
<path d="M17.8141 8.887V14.035C17.8141 14.587 17.7811 15.136 17.7151 15.682C17.6491 16.222 17.5621 16.774 17.4541 17.338H15.5641C15.4561 16.774 15.3691 16.222 15.3031 15.682C15.2371 15.136 15.2041 14.587 15.2041 14.035V8.887H17.8141ZM14.8981 20.587C14.8981 20.371 14.9371 20.17 15.0151 19.984C15.0991 19.798 15.2101 19.636 15.3481 19.498C15.4921 19.36 15.6601 19.252 15.8521 19.174C16.0441 19.09 16.2541 19.048 16.4821 19.048C16.7041 19.048 16.9111 19.09 17.1031 19.174C17.2951 19.252 17.4631 19.36 17.6071 19.498C17.7511 19.636 17.8621 19.798 17.9401 19.984C18.0241 20.17 18.0661 20.371 18.0661 20.587C18.0661 20.803 18.0241 21.007 17.9401 21.199C17.8621 21.385 17.7511 21.547 17.6071 21.685C17.4631 21.823 17.2951 21.931 17.1031 22.009C16.9111 22.087 16.7041 22.126 16.4821 22.126C16.2541 22.126 16.0441 22.087 15.8521 22.009C15.6601 21.931 15.4921 21.823 15.3481 21.685C15.2101 21.547 15.0991 21.385 15.0151 21.199C14.9371 21.007 14.8981 20.803 14.8981 20.587Z" fill="white"/>
</svg>
