<svg xmlns="http://www.w3.org/2000/svg" viewBox="0 0 13 13.03"><defs><style>.cls-1{fill:#fff;}.cls-2{stroke:#5c5859;stroke-linecap:round;stroke-miterlimit:10;stroke-width:0.75px;}</style></defs><title>Asset 7</title><g id="Layer_2" data-name="Layer 2"><g id="content_-_state_2" data-name="content - state 2"><g id="pencil"><path class="cls-1" d="M12.64,3.61,11.47,4.79a.3.3,0,0,1-.43,0L8.22,2a.31.31,0,0,1,0-.43L9.39.36a1.22,1.22,0,0,1,1.72,0l1.53,1.53A1.22,1.22,0,0,1,12.64,3.61ZM7.22,2.54.55,9.22,0,12.31A.61.61,0,0,0,.72,13l3.09-.54,6.67-6.68a.31.31,0,0,0,0-.43L7.65,2.54a.31.31,0,0,0-.43,0ZM2,11H3.85v1.38l-2.46.43L.21,11.64.64,9.18H2Z"/><line class="cls-2" x1="3.11" y1="8.64" x2="7.07" y2="4.74"/></g></g></g></svg>