<svg xmlns="http://www.w3.org/2000/svg" viewBox="0 0 12 10.72"><defs><style>.cls-1{fill:#fff;}</style></defs><title>Asset 6</title><g id="Layer_2" data-name="Layer 2"><g id="content_-_state_2" data-name="content - state 2"><path class="cls-1" d="M11.88,4.16,8.45,7.59a.42.42,0,0,1-.3.13.43.43,0,0,1-.43-.43V5.57H6.22c-2.89,0-4.78.56-4.78,3.75,0,.27,0,.55,0,.82,0,.11,0,.23,0,.33a.22.22,0,0,1-.21.23.21.21,0,0,1-.19-.11,3.5,3.5,0,0,1-.25-.51,8.5,8.5,0,0,1-.85-3A6,6,0,0,1,.35,4.84C1.29,2.53,4,2.14,6.22,2.14h1.5V.43A.43.43,0,0,1,8.15,0a.42.42,0,0,1,.3.13l3.43,3.43a.42.42,0,0,1,0,.6Z"/></g></g></svg>