<svg xmlns="http://www.w3.org/2000/svg" viewBox="0 0 9.43 10.29"><defs><style>.cls-1{fill:#fff;}</style></defs><title>Asset 7</title><g id="Layer_2" data-name="Layer 2"><g id="content_-_state_2" data-name="content - state 2"><path class="cls-1" d="M9.43,2.36a.21.21,0,0,1-.21.21H8.57V8.92A1.26,1.26,0,0,1,7.5,10.29H1.93A1.23,1.23,0,0,1,.86,8.95V2.57H.21A.21.21,0,0,1,0,2.36V1.93a.21.21,0,0,1,.21-.21H2.28L2.75.6A1,1,0,0,1,3.64,0H5.79a1,1,0,0,1,.89.6l.47,1.12H9.22a.21.21,0,0,1,.21.21Zm-1.71.21h-6V8.92a.6.6,0,0,0,.21.51H7.5a.59.59,0,0,0,.21-.51ZM3.43,7.93a.21.21,0,0,1-.21.21H2.79a.21.21,0,0,1-.21-.21V4.07a.21.21,0,0,1,.21-.21h.43a.21.21,0,0,1,.21.21ZM6.22,1.71,5.89.93A.26.26,0,0,0,5.78.86H3.66a.23.23,0,0,0-.11.07l-.33.78ZM5.14,7.93a.21.21,0,0,1-.21.21H4.5a.21.21,0,0,1-.21-.21V4.07a.21.21,0,0,1,.21-.21h.43a.21.21,0,0,1,.21.21Zm1.71,0a.21.21,0,0,1-.21.21H6.22A.21.21,0,0,1,6,7.93V4.07a.21.21,0,0,1,.21-.21h.43a.21.21,0,0,1,.21.21Z"/></g></g></svg>