<svg xmlns="http://www.w3.org/2000/svg" viewBox="0 0 11.15 9.43"><defs><style>.cls-1{fill:#807d7d;}</style></defs><title>Asset 9</title><g id="Layer_2" data-name="Layer 2"><g id="global_elements" data-name="global elements"><g id="left_panel" data-name="left panel"><g id="step_2_-_global_policy_changes" data-name="step 2 - global policy changes"><path class="cls-1" d="M0,3A3,3,0,0,1,6,3V4.29h4.5a.64.64,0,0,1,.64.64V8.79a.64.64,0,0,1-.64.64H4.07a.64.64,0,0,1-.64-.64V4.93a.64.64,0,0,1,.64-.64h.64V3A1.71,1.71,0,0,0,1.29,3V4.72a.43.43,0,0,1-.43.43H.43A.43.43,0,0,1,0,4.72Z"/></g></g></g></g></svg>